<?xml version="1.0" encoding="UTF-8"?>
<svg xmlns="http://www.w3.org/2000/svg" viewBox="0 0 259 259" width="259" height="259">
    <g transform="translate(0,259) scale(0.1,-0.1)" fill="#000000">
        <path d="M0 1295 l0 -1295 1295 0 1295 0 0 1295 0 1295 -1295 0 -1295 0 0 -1295z m1417 649 c242 -50 435 -238 499 -484 22 -86 22 -236 0 -320 -62 -231 -253 -422 -482 -480 -80 -21 -204 -26 -279 -11 l-40 7 35 16 c19 8 51 29 71 45 26 20 49 30 80 31 120 7 247 68 345 166 223 223 225 554 4 776 -165 167 -396 206 -607 104 -160 -77 -245 -243 -184 -362 42 -82 90 -102 251 -102 67 0 130 -5 141 -10 26 -14 25 -64 -2 -91 -20 -20 -29 -21 -167 -17 -168 4 -199 14 -277 92 -90 90 -111 246 -50 366 41 82 137 170 237 219 138 69 274 86 425 55z m-132 -264 c258 -42 400 -308 291 -545 -30 -67 -105 -144 -177 -182 l-54 -28 -290 -3 -290 -3 -32 50 c-18 27 -33 55 -33 60 0 8 95 11 298 11 337 0 345 2 420 80 126 131 84 345 -83 421 -34 16 -68 19 -232 19 -106 0 -193 3 -193 6 0 16 45 76 73 99 30 23 40 25 137 25 58 0 132 -5 165 -10z"/>
    </g>
</svg>